<svg width="46" height="51" viewBox="0 0 46 51" fill="none" xmlns="http://www.w3.org/2000/svg">
<path d="M22.9775 50.8774C35.436 50.8774 45.7192 40.5942 45.7192 28.1357C45.7192 21.0386 42.1816 14.3149 36.8643 10.3159C35.6777 9.34913 34.2275 9.52491 33.5024 10.5576C32.7114 11.6343 33.063 12.9307 34.0737 13.8315C38.4023 17.1494 41.1489 22.269 41.1709 28.1357C41.1929 38.2212 33.063 46.3291 22.9775 46.3291C12.8921 46.3291 4.82812 38.2212 4.82812 28.1357C4.82812 19.6104 10.585 12.5132 18.4512 10.5137V13.6997C18.4512 15.3916 19.7036 15.853 21.0659 14.8643L28.4927 9.6128C29.5913 8.79981 29.6133 7.56934 28.4927 6.77833L21.0879 1.50489C19.7036 0.516119 18.4512 0.955572 18.4512 2.66944V5.87745C8.12402 8.00879 0.257812 17.2373 0.257812 28.1357C0.257812 40.5942 10.541 50.8774 22.9775 50.8774ZM16.6934 37.3423C17.6821 37.3423 18.2974 36.6831 18.2974 35.6284V22.0054C18.2974 20.687 17.5942 20.0059 16.4297 20.0059C15.7266 20.0059 15.1992 20.2256 14.3423 20.8628L11.5078 22.8843C10.9146 23.3677 10.6509 23.8071 10.6509 24.4004C10.6509 25.1914 11.2881 25.8506 12.0571 25.8506C12.5625 25.8506 12.8481 25.7188 13.2656 25.3232L15.1113 23.8291V35.6284C15.1113 36.6611 15.7266 37.3423 16.6934 37.3423ZM27.7236 37.562C31.415 37.562 33.832 35.189 33.832 31.5415C33.832 28.2676 31.6348 26.0264 28.6245 26.0264C27.2842 26.0264 25.8779 26.6636 25.2627 27.6963L25.6143 23.082H31.9204C32.7114 23.082 33.3047 22.4668 33.3047 21.6318C33.3047 20.7969 32.7114 20.2476 31.9204 20.2476H24.9331C23.7246 20.2476 23.0435 20.9727 22.9556 22.2471L22.5161 28.5093C22.4062 29.6958 23.0654 30.2891 24.0981 30.2891C24.9111 30.2891 25.2188 30.1353 25.812 29.6738C26.5811 28.9927 27.2183 28.6851 28.0752 28.6851C29.7012 28.6851 30.7559 29.8716 30.7559 31.6074C30.7559 33.4092 29.5034 34.7275 27.8335 34.7275C26.5811 34.7275 25.5703 34.0244 24.999 32.9697C24.6694 32.4424 24.2739 32.1348 23.6587 32.1348C22.8457 32.1348 22.2744 32.7061 22.2744 33.541C22.2744 33.8706 22.3403 34.1782 22.4722 34.5078C23.0654 36.0239 25.021 37.562 27.7236 37.562Z" fill="#636366"/>
</svg>
