<svg width="44" height="42" viewBox="0 0 44 42" fill="none" xmlns="http://www.w3.org/2000/svg">
<path fill-rule="evenodd" clip-rule="evenodd" d="M8.2001 0H34.8503V2.57142H8.2001V0ZM4.10005 5.14339H38.9503V7.71482H4.10005V5.14339ZM43.0503 10.5698H0V10.5709V13.1412V39.4286V40.5709V42H43.0503V39.4286H43.0502L43.0502 13.1412H43.0503V10.5698ZM2.63573 39.4286L2.63573 13.1412H40.4145V39.4286H2.63573ZM28.7658 24.5668L31 26L28.7658 27.4332L19.1627 33.5936L16.75 35.1414V32.2749V19.7251V16.8586L19.1627 18.4064L28.7658 24.5668ZM19.1627 21.2729L26.5316 26L19.1627 30.7271V21.2729Z" fill="#8E8E93"/>
</svg>
