<svg width="87" height="87" viewBox="0 0 87 87" fill="none" xmlns="http://www.w3.org/2000/svg">
<circle cx="43.5" cy="43.5" r="43.5" fill="#E5E5EA"/>
<path d="M28.9705 22.9607C27.6576 22.9607 26.583 24.0349 26.583 25.3478V62.523C26.583 63.836 27.6576 64.9102 28.9705 64.9102C30.2835 64.9102 31.3581 63.836 31.3581 62.523V25.3478C31.3581 24.0349 30.2835 22.9607 28.9705 22.9607Z" fill="#007AFF"/>
<path d="M38.4368 27.9039C37.1215 27.9039 36.0479 28.9781 36.0479 30.2912L36.1192 57.7462C36.1192 59.0591 37.1928 60.1335 38.5081 60.1335C39.8194 60.1335 40.895 59.0591 40.895 57.7462L40.8217 30.2912C40.8217 28.9781 39.7481 27.9039 38.4368 27.9039Z" fill="#007AFF"/>
<path d="M47.9847 32.5911C46.6734 32.5911 45.5986 33.6655 45.5986 34.9786L45.6639 52.9692C45.6639 54.2824 46.7387 55.3568 48.05 55.3568C49.3654 55.3568 50.4381 54.2824 50.4381 52.9692L50.3728 34.9786C50.3728 33.6655 49.3001 32.5911 47.9847 32.5911Z" fill="#007AFF"/>
<path d="M57.5822 37.3569C56.2687 37.3569 55.1943 38.4312 55.1943 39.7441L55.2699 48.2021C55.2699 49.5152 56.3442 50.5895 57.6578 50.5895C58.9713 50.5895 60.0457 49.5152 60.0457 48.2021L59.9701 39.7441C59.9701 38.4312 58.8937 37.3569 57.5822 37.3569Z" fill="#007AFF"/>
<path d="M67.1619 41.4001C65.7312 41.4001 64.5703 42.5591 64.5703 43.9889C64.5703 45.4187 65.7312 46.5775 67.1619 46.5775C68.5904 46.5775 69.7492 45.4187 69.7492 43.9889C69.7492 42.5591 68.5904 41.4001 67.1619 41.4001Z" fill="#007AFF"/>
</svg>
