<svg width="87" height="87" viewBox="0 0 87 87" fill="none" xmlns="http://www.w3.org/2000/svg">
<circle cx="43.5" cy="43.5" r="43.5" fill="#48484A"/>
<path d="M28.9708 22.9607C27.6578 22.9607 26.5833 24.0349 26.5833 25.3478V62.523C26.5833 63.836 27.6578 64.9102 28.9708 64.9102C30.2837 64.9102 31.3583 63.836 31.3583 62.523V25.3478C31.3583 24.0349 30.2837 22.9607 28.9708 22.9607Z" fill="#64D2FF"/>
<path d="M38.437 27.9038C37.1217 27.9038 36.0481 28.978 36.0481 30.2911L36.1194 57.7461C36.1194 59.059 37.193 60.1334 38.5083 60.1334C39.8196 60.1334 40.8952 59.059 40.8952 57.7461L40.8219 30.2911C40.8219 28.978 39.7483 27.9038 38.437 27.9038Z" fill="#64D2FF"/>
<path d="M47.9847 32.5912C46.6734 32.5912 45.5986 33.6655 45.5986 34.9787L45.6639 52.9693C45.6639 54.2825 46.7387 55.3568 48.05 55.3568C49.3654 55.3568 50.4381 54.2825 50.4381 52.9693L50.3728 34.9787C50.3728 33.6655 49.3001 32.5912 47.9847 32.5912Z" fill="#64D2FF"/>
<path d="M57.5817 37.3568C56.2682 37.3568 55.1938 38.4312 55.1938 39.7441L55.2694 48.202C55.2694 49.5151 56.3437 50.5895 57.6573 50.5895C58.9708 50.5895 60.0452 49.5151 60.0452 48.202L59.9696 39.7441C59.9696 38.4312 58.8932 37.3568 57.5817 37.3568Z" fill="#64D2FF"/>
<path d="M67.1616 41.4002C65.731 41.4002 64.5701 42.5592 64.5701 43.989C64.5701 45.4187 65.731 46.5775 67.1616 46.5775C68.5901 46.5775 69.7489 45.4187 69.7489 43.989C69.7489 42.5592 68.5901 41.4002 67.1616 41.4002Z" fill="#64D2FF"/>
</svg>
